<svg xmlns="http://www.w3.org/2000/svg" version="1.1" xmlns:xlink="http://www.w3.org/1999/xlink" xmlns:svgjs="http://svgjs.dev/svgjs" width="1500" height="465" viewBox="0 0 1500 465"><g transform="matrix(1,0,0,1,-0.9090909090909918,-0.560563568446355)"><svg viewBox="0 0 396 123" data-background-color="#ffffff" preserveAspectRatio="xMidYMid meet" height="465" width="1500" xmlns="http://www.w3.org/2000/svg" xmlns:xlink="http://www.w3.org/1999/xlink"><g id="tight-bounds" transform="matrix(1,0,0,1,0.2400000000000091,0.14827810520193907)"><svg viewBox="0 0 395.52 122.70344378959614" height="122.70344378959614" width="395.52"><g><svg viewBox="0 0 602.6589533460095 186.96482859574465" height="122.70344378959614" width="395.52"><g><rect width="7.78127686985423" height="186.96482859574465" x="178.98784173831697" y="0" fill="#37b637" opacity="1" stroke-width="0" stroke="transparent" fill-opacity="1" class="rect-yte-0" data-fill-palette-color="primary" rx="1%" id="yte-0" data-palette-color="#37b637"></rect></g><g transform="matrix(1,0,0,1,207.1389533460095,0.465086638297862)"><svg viewBox="0 0 395.52 186.03465531914892" height="186.03465531914892" width="395.52"><g id="textblocktransform"><svg viewBox="0 0 395.52 186.03465531914892" height="186.03465531914892" width="395.52" id="textblock"><g><svg viewBox="0 0 395.52 186.03465531914892" height="186.03465531914892" width="395.52"><g transform="matrix(1,0,0,1,0,0)"><svg width="395.52" viewBox="1.85 -37.95000000000001 176.25000000000006 79.9" height="186.03465531914892" data-palette-color="#37b637"><svg></svg><svg></svg><g class="wordmark-text-0" data-fill-palette-color="primary" id="text-0"><path d="M7.35 0h-3.6v-37.4l3.6-0.2zM16.7-30.05c-0.6 0-1.083-0.183-1.45-0.55v0c-0.433-0.433-0.65-0.967-0.65-1.6v0c0-0.633 0.217-1.167 0.65-1.6v0c0.367-0.367 0.85-0.55 1.45-0.55v0c0.633 0 1.133 0.167 1.5 0.5v0c0.4 0.433 0.6 0.983 0.6 1.65v0c0 0.6-0.2 1.133-0.6 1.6v0c-0.467 0.367-0.967 0.55-1.5 0.55zM18.5 0h-3.65v-25h3.65zM27 0v-22.55h-2.6v-2.1l2.6-0.3v-3.6c0-3.233 0.5-5.61 1.5-7.13 1-1.513 2.683-2.27 5.05-2.27v0c0.8 0 1.55 0.107 2.25 0.32 0.7 0.22 1.267 0.447 1.7 0.68 0.433 0.233 0.7 0.383 0.8 0.45v0l-0.5 1.95c-0.1-0.067-0.317-0.193-0.65-0.38-0.333-0.18-0.767-0.353-1.3-0.52-0.533-0.167-1.083-0.25-1.65-0.25v0c-0.9 0-1.6 0.217-2.1 0.65-0.5 0.433-0.873 1.2-1.12 2.3-0.253 1.1-0.38 2.633-0.38 4.6v0 3.15h7.25v2.45h-7.25v22.55zM50.45 0.5c-3.333 0-5.95-1.043-7.85-3.13-1.9-2.08-2.85-5.203-2.85-9.37v0c0-4.2 0.917-7.5 2.75-9.9 1.833-2.4 4.333-3.6 7.5-3.6v0c2.867 0 5.077 0.99 6.63 2.97 1.547 1.987 2.32 4.797 2.32 8.43v0c0 0.633-0.033 1.15-0.1 1.55-0.067 0.4-0.117 0.65-0.15 0.75v0h-15.15c0 6.733 2.433 10.1 7.3 10.1v0c1.333 0 2.473-0.243 3.42-0.73 0.953-0.48 1.697-0.997 2.23-1.55 0.533-0.547 0.8-0.87 0.8-0.97v0l1.45 1.2c0 0.133-0.317 0.557-0.95 1.27-0.633 0.72-1.567 1.397-2.8 2.03-1.233 0.633-2.75 0.95-4.55 0.95zM43.6-13.9h11.95l0.05-0.95c0-5.667-1.867-8.5-5.6-8.5v0c-1.967 0-3.483 0.773-4.55 2.32-1.067 1.553-1.683 3.93-1.85 7.13z" fill="#37b637" fill-rule="nonzero" stroke="none" stroke-width="1" stroke-linecap="butt" stroke-linejoin="miter" stroke-miterlimit="10" stroke-dasharray="" stroke-dashoffset="0" font-family="none" font-weight="none" font-size="none" text-anchor="none" style="mix-blend-mode: normal" data-fill-palette-color="primary" opacity="1"></path><path transform="translate(0,41.45)" d="M12.5 0.5c-3.467 0-6.107-1.133-7.92-3.4-1.82-2.267-2.73-5.467-2.73-9.6v0c0-4.133 0.91-7.333 2.73-9.6 1.813-2.267 4.453-3.4 7.92-3.4v0c3.467 0 6.11 1.133 7.93 3.4 1.813 2.267 2.72 5.467 2.72 9.6v0c0 4.1-0.923 7.29-2.77 9.57-1.853 2.287-4.48 3.43-7.88 3.43zM12.5-1.7c2.333 0 4.05-0.893 5.15-2.68 1.1-1.78 1.65-4.487 1.65-8.12v0c0-3.6-0.55-6.3-1.65-8.1-1.1-1.8-2.817-2.7-5.15-2.7v0c-2.333 0-4.05 0.89-5.15 2.67-1.1 1.787-1.65 4.497-1.65 8.13v0c0 3.633 0.55 6.34 1.65 8.12 1.1 1.787 2.817 2.68 5.15 2.68zM36.1 0.5c-2.433 0-4.317-0.677-5.65-2.03-1.333-1.347-2-3.353-2-6.02v0-17.45h3.65v16.7c0 4.1 1.733 6.15 5.2 6.15v0c1.2 0 2.233-0.193 3.1-0.58 0.867-0.38 1.56-0.787 2.08-1.22 0.513-0.433 0.77-0.683 0.77-0.75v0-20.3h3.65v25h-3.05l-0.5-2.4c-0.433 0.6-1.233 1.233-2.4 1.9-1.167 0.667-2.783 1-4.85 1zM60.55 0.5c-1.8 0-3.133-0.56-4-1.68-0.867-1.113-1.3-2.953-1.3-5.52v0-15.85h-2.6v-2.1l2.6-0.3 1.35-7.95h2.3v7.9h6.4v2.45h-6.4v14.95c0 2.167 0.21 3.657 0.63 4.47 0.413 0.82 1.137 1.23 2.17 1.23v0c0.833 0 1.583-0.083 2.25-0.25 0.667-0.167 1-0.267 1-0.3v0l0.25 2c-0.067 0.067-0.273 0.173-0.62 0.32-0.353 0.153-0.87 0.297-1.55 0.43-0.687 0.133-1.513 0.2-2.48 0.2zM78.85 0.5c-3.033 0-5.467-1.083-7.3-3.25-1.833-2.167-2.75-5.183-2.75-9.05v0c0-4.167 0.893-7.493 2.68-9.98 1.78-2.48 4.287-3.72 7.52-3.72v0c1.367 0 2.517 0.173 3.45 0.52 0.933 0.353 1.65 0.737 2.15 1.15 0.5 0.42 0.75 0.663 0.75 0.73v0h0.05v-14.3l3.6-0.2v37.6h-3.1l-0.4-2.95c-0.367 0.733-1.083 1.49-2.15 2.27-1.067 0.787-2.567 1.18-4.5 1.18zM79.65-1.95c1.2 0 2.233-0.26 3.1-0.78 0.867-0.513 1.527-1.07 1.98-1.67 0.447-0.6 0.67-0.95 0.67-1.05v0-15.35c0-0.067-0.223-0.3-0.67-0.7-0.453-0.4-1.07-0.767-1.85-1.1-0.787-0.333-1.713-0.5-2.78-0.5v0c-2.567 0-4.45 0.94-5.65 2.82-1.2 1.887-1.8 4.68-1.8 8.38v0c0 3.5 0.59 6.033 1.77 7.6 1.187 1.567 2.93 2.35 5.23 2.35zM105.25 0.5c-3.467 0-6.107-1.133-7.92-3.4-1.82-2.267-2.73-5.467-2.73-9.6v0c0-4.133 0.91-7.333 2.73-9.6 1.813-2.267 4.453-3.4 7.92-3.4v0c3.467 0 6.107 1.133 7.92 3.4 1.82 2.267 2.73 5.467 2.73 9.6v0c0 4.1-0.923 7.29-2.77 9.57-1.853 2.287-4.48 3.43-7.88 3.43zM105.25-1.7c2.333 0 4.05-0.893 5.15-2.68 1.1-1.78 1.65-4.487 1.65-8.12v0c0-3.6-0.55-6.3-1.65-8.1-1.1-1.8-2.817-2.7-5.15-2.7v0c-2.333 0-4.05 0.89-5.15 2.67-1.1 1.787-1.65 4.497-1.65 8.13v0c0 3.633 0.55 6.34 1.65 8.12 1.1 1.787 2.817 2.68 5.15 2.68zM130.3 0.5c-3.467 0-6.107-1.133-7.92-3.4-1.82-2.267-2.73-5.467-2.73-9.6v0c0-4.133 0.91-7.333 2.73-9.6 1.813-2.267 4.453-3.4 7.92-3.4v0c3.467 0 6.107 1.133 7.92 3.4 1.82 2.267 2.73 5.467 2.73 9.6v0c0 4.1-0.923 7.29-2.77 9.57-1.853 2.287-4.48 3.43-7.88 3.43zM130.3-1.7c2.333 0 4.05-0.893 5.15-2.68 1.1-1.78 1.65-4.487 1.65-8.12v0c0-3.6-0.55-6.3-1.65-8.1-1.1-1.8-2.817-2.7-5.15-2.7v0c-2.333 0-4.05 0.89-5.15 2.67-1.1 1.787-1.65 4.497-1.65 8.13v0c0 3.633 0.55 6.34 1.65 8.12 1.1 1.787 2.817 2.68 5.15 2.68zM146.55 0v-25h2.7l0.55 5.15c0-0.2 0.193-0.777 0.58-1.73 0.38-0.947 0.97-1.837 1.77-2.67 0.8-0.833 1.833-1.25 3.1-1.25v0c0.633 0 1.35 0.107 2.15 0.32 0.8 0.22 1.317 0.38 1.55 0.48v0l-0.35 2.75c-0.233-0.1-0.757-0.25-1.57-0.45-0.82-0.2-1.547-0.3-2.18-0.3v0c-0.967 0-1.79 0.323-2.47 0.97-0.687 0.653-1.197 1.347-1.53 2.08-0.333 0.733-0.55 1.283-0.65 1.65v0 18zM169.25 0.5c-1.767 0-3.26-0.277-4.48-0.83-1.213-0.547-2.13-1.137-2.75-1.77-0.613-0.633-0.92-1-0.92-1.1v0l1.25-1.75c0 0.067 0.267 0.383 0.8 0.95 0.533 0.567 1.267 1.09 2.2 1.57 0.933 0.487 2.033 0.73 3.3 0.73v0c1.867 0 3.273-0.467 4.22-1.4 0.953-0.933 1.43-2.067 1.43-3.4v0c0-0.967-0.243-1.767-0.73-2.4-0.48-0.633-1.08-1.127-1.8-1.48-0.713-0.347-1.703-0.737-2.97-1.17v0c-1.467-0.533-2.633-1.027-3.5-1.48-0.867-0.447-1.61-1.12-2.23-2.02-0.613-0.9-0.92-2.067-0.92-3.5v0c0-2.133 0.773-3.827 2.32-5.08 1.553-1.247 3.547-1.87 5.98-1.87v0c1.067 0 2.09 0.14 3.07 0.42 0.987 0.287 1.78 0.587 2.38 0.9 0.6 0.32 0.983 0.53 1.15 0.63v0l-0.6 2.15c-0.133-0.1-0.467-0.31-1-0.63-0.533-0.313-1.227-0.62-2.08-0.92-0.847-0.3-1.72-0.45-2.62-0.45v0c-1.533 0-2.777 0.383-3.73 1.15-0.947 0.767-1.42 1.733-1.42 2.9v0c0 0.967 0.25 1.773 0.75 2.42 0.5 0.653 1.123 1.163 1.87 1.53 0.753 0.367 1.763 0.783 3.03 1.25v0c1.467 0.5 2.657 0.99 3.57 1.47 0.92 0.487 1.697 1.18 2.33 2.08 0.633 0.9 0.95 2.067 0.95 3.5v0c0 2.167-0.75 3.973-2.25 5.42-1.5 1.453-3.7 2.18-6.6 2.18z" fill="#37b637" fill-rule="nonzero" stroke="none" stroke-width="1" stroke-linecap="butt" stroke-linejoin="miter" stroke-miterlimit="10" stroke-dasharray="" stroke-dashoffset="0" font-family="none" font-weight="none" font-size="none" text-anchor="none" style="mix-blend-mode: normal" data-fill-palette-color="primary" opacity="1"></path></g></svg></g></svg></g></svg></g></svg></g><g transform="matrix(1,0,0,1,0,0.465086638297862)"><svg viewBox="0 0 158.61800700047868 186.03465531914892" height="186.03465531914892" width="158.61800700047868"><g><svg xmlns="http://www.w3.org/2000/svg" xmlns:xlink="http://www.w3.org/1999/xlink" version="1.1" x="0" y="0" viewBox="17.762515300440285 12.192485489985742 64.47432089111747 75.61851451001426" enable-background="new 0 0 100 100" xml:space="preserve" height="186.03465531914892" width="158.61800700047868" class="icon-icon-0" data-fill-palette-color="accent" id="icon-0"><path d="M80.906 49.421A1.68 1.68 0 0 1 80.8 47.931C83.52 40.981 80.306 36.986 78.577 35.451A1.65 1.65 0 0 1 78.136 33.595C80.03 28.939 78.089 25.58 77.685 24.96A2 2 0 0 0 77.539 24.767C73.223 19.669 67.447 20.758 64.819 21.626A1.66 1.66 0 0 1 62.805 20.803C59.277 13.72 50.808 10.588 43.249 12.993 35.955 15.313 32.07 22.045 32.453 29.374 32.499 30.262 31.868 31.037 30.984 31.129 28.991 31.336 25.897 32.15 25.584 32.276 15.433 36.373 15.532 48.347 23.745 54.028 24.247 54.375 24.558 54.941 24.503 55.549 24.306 57.732 24.519 63.184 30.824 66.468 30.824 66.468 34.667 68.823 39.47 66.167 40.477 65.61 41.765 66.234 41.904 67.376 42.155 69.435 42.965 71.973 45.362 72.819 48.449 73.908 50.196 72.768 51.323 72.212V87.811H53.323V72.313C62.252 75.431 65.632 70.749 66.679 68.526 66.959 67.933 67.557 67.544 68.211 67.58 74.844 67.946 77.066 62.757 77.624 61.012 77.743 60.639 77.995 60.326 78.322 60.111 84.23 56.219 81.988 51.206 80.906 49.421M53.324 53.624V72.013H51.324V60.805L43.366 52.847 44.78 51.433 51.324 57.977V35.793H53.324V50.795L58.657 45.462 60.071 46.876z" fill="#006400" data-fill-palette-color="accent"></path></svg></g></svg></g></svg></g><defs></defs></svg><rect width="395.52" height="122.70344378959614" fill="none" stroke="none" visibility="hidden"></rect></g></svg></g></svg>