<?xml version="1.0" encoding="UTF-8"?>
<svg id="icon-0" xmlns="http://www.w3.org/2000/svg" viewBox="0 0 996.84 309.25">
  <defs>
    <style>
      .cls-1 {
        fill: #37b637;
      }

      .cls-1, .cls-2 {
        stroke-width: 0px;
      }

      .cls-2 {
        fill: #006400;
      }
    </style>
  </defs>
  <g id="tight-bounds">
    <g>
      <path id="yte-0" class="cls-1" d="M302.49,0h0c3.55,0,6.44,4.46,6.44,9.97v289.32c0,5.51-2.88,9.97-6.44,9.97h0c-3.55,0-6.44-4.46-6.44-9.97V9.97c0-5.51,2.88-9.97,6.44-9.97Z"/>
      <g id="textblocktransform">
        <g id="text-0">
          <path class="cls-1" d="M363.04,147.2h-13.36V8.38l13.36-.74v139.57ZM397.74,35.66c-2.23,0-4.02-.68-5.38-2.04h0c-1.61-1.61-2.41-3.59-2.41-5.94h0c0-2.35.81-4.33,2.41-5.94h0c1.36-1.36,3.16-2.04,5.38-2.04h0c2.35,0,4.21.62,5.57,1.86h0c1.48,1.61,2.23,3.65,2.23,6.12h0c0,2.23-.74,4.21-2.23,5.94h0c-1.73,1.36-3.59,2.04-5.57,2.04h0ZM404.42,147.2h-13.55V54.41h13.55v92.8ZM435.98,147.2V63.5h-9.65v-7.79l9.65-1.11v-13.36c0-12,1.86-20.82,5.57-26.47,3.71-5.62,9.96-8.43,18.74-8.43h0c2.97,0,5.75.4,8.35,1.19,2.6.82,4.7,1.66,6.31,2.52,1.61.86,2.6,1.42,2.97,1.67h0l-1.86,7.24c-.37-.25-1.18-.72-2.41-1.41-1.24-.67-2.85-1.31-4.83-1.93s-4.02-.93-6.12-.93h0c-3.34,0-5.94.81-7.79,2.41-1.86,1.61-3.24,4.45-4.16,8.54-.94,4.08-1.41,9.77-1.41,17.07h0v11.69h26.91v9.09h-26.91v83.7h-13.36ZM523.02,149.06c-12.37,0-22.09-3.87-29.14-11.62-7.05-7.72-10.58-19.31-10.58-34.78h0c0-15.59,3.4-27.84,10.21-36.75s16.08-13.36,27.84-13.36h0c10.64,0,18.85,3.67,24.61,11.02,5.74,7.38,8.61,17.81,8.61,31.29h0c0,2.35-.12,4.27-.37,5.75-.25,1.48-.43,2.41-.56,2.78h-56.23c0,24.99,9.03,37.49,27.1,37.49h0c4.95,0,9.18-.9,12.69-2.71,3.54-1.78,6.3-3.7,8.28-5.75,1.98-2.03,2.97-3.23,2.97-3.6h0l5.38,4.45c0,.49-1.18,2.07-3.53,4.71-2.35,2.67-5.82,5.19-10.39,7.54-4.58,2.35-10.21,3.53-16.89,3.53h0ZM497.59,95.61h44.36l.19-3.53c0-21.04-6.93-31.55-20.79-31.55h0c-7.3,0-12.93,2.87-16.89,8.61-3.96,5.76-6.25,14.59-6.87,26.47h0Z"/>
          <path class="cls-1" d="M382.15,302.92c-12.87,0-22.67-4.21-29.4-12.62-6.76-8.41-10.13-20.29-10.13-35.63h0c0-15.34,3.38-27.22,10.13-35.63,6.73-8.41,16.53-12.62,29.4-12.62h0c12.87,0,22.68,4.21,29.44,12.62,6.73,8.41,10.1,20.29,10.1,35.63h0c0,15.22-3.43,27.06-10.28,35.52-6.88,8.49-16.63,12.73-29.25,12.73ZM382.15,294.75c8.66,0,15.03-3.31,19.12-9.95,4.08-6.61,6.12-16.66,6.12-30.14h0c0-13.36-2.04-23.38-6.12-30.07-4.08-6.68-10.46-10.02-19.12-10.02h0c-8.66,0-15.03,3.3-19.12,9.91-4.08,6.63-6.12,16.69-6.12,30.18h0c0,13.49,2.04,23.53,6.12,30.14,4.08,6.63,10.46,9.95,19.12,9.95ZM469.75,302.92c-9.03,0-16.02-2.51-20.97-7.54-4.95-5-7.42-12.45-7.42-22.35h0v-64.77h13.55v61.99c0,15.22,6.43,22.83,19.3,22.83h0c4.45,0,8.29-.72,11.51-2.15,3.22-1.41,5.79-2.92,7.72-4.53,1.9-1.61,2.86-2.54,2.86-2.78h0v-75.35h13.55v92.8h-11.32l-1.86-8.91c-1.61,2.23-4.58,4.58-8.91,7.05-4.33,2.48-10.33,3.71-18,3.71ZM560.51,302.92c-6.68,0-11.63-2.08-14.85-6.24-3.22-4.13-4.83-10.96-4.83-20.49h0v-58.83h-9.65v-7.79l9.65-1.11,5.01-29.51h8.54v29.32h23.76v9.09h-23.76v55.49c0,8.04.78,13.57,2.34,16.59,1.53,3.04,4.22,4.57,8.05,4.57h0c3.09,0,5.88-.31,8.35-.93s3.71-.99,3.71-1.11h0l.93,7.42c-.25.25-1.01.64-2.3,1.19-1.31.57-3.23,1.1-5.75,1.6-2.55.49-5.62.74-9.21.74h0ZM628.44,302.92c-11.26,0-20.29-4.02-27.1-12.06-6.8-8.04-10.21-19.24-10.21-33.59h0c0-15.47,3.31-27.81,9.95-37.04,6.61-9.21,15.91-13.81,27.91-13.81h0c5.07,0,9.34.64,12.81,1.93,3.46,1.31,6.12,2.74,7.98,4.27,1.86,1.56,2.78,2.46,2.78,2.71h.19v-53.08l13.36-.74v139.57h-11.51l-1.48-10.95c-1.36,2.72-4.02,5.53-7.98,8.43-3.96,2.92-9.53,4.38-16.7,4.38h0ZM631.41,293.82c4.45,0,8.29-.97,11.51-2.9,3.22-1.9,5.67-3.97,7.35-6.2,1.66-2.23,2.49-3.53,2.49-3.9h0v-56.98c0-.25-.83-1.11-2.49-2.6-1.68-1.48-3.97-2.85-6.87-4.08-2.92-1.24-6.36-1.86-10.32-1.86h0c-9.53,0-16.52,3.49-20.97,10.47-4.45,7-6.68,17.37-6.68,31.11h0c0,12.99,2.19,22.39,6.57,28.21,4.41,5.82,10.88,8.72,19.41,8.72ZM726.43,302.92c-12.87,0-22.67-4.21-29.4-12.62-6.76-8.41-10.13-20.29-10.13-35.63h0c0-15.34,3.38-27.22,10.13-35.63,6.73-8.41,16.53-12.62,29.4-12.62h0c12.87,0,22.67,4.21,29.4,12.62,6.76,8.41,10.13,20.29,10.13,35.63h0c0,15.22-3.43,27.06-10.28,35.52-6.88,8.49-16.63,12.73-29.25,12.73h0ZM726.43,294.75c8.66,0,15.03-3.31,19.12-9.95,4.08-6.61,6.12-16.66,6.12-30.14h0c0-13.36-2.04-23.38-6.12-30.07-4.08-6.68-10.46-10.02-19.12-10.02h0c-8.66,0-15.03,3.3-19.12,9.91-4.08,6.63-6.12,16.69-6.12,30.18h0c0,13.49,2.04,23.53,6.12,30.14,4.08,6.63,10.46,9.95,19.12,9.95ZM819.41,302.92c-12.87,0-22.67-4.21-29.4-12.62-6.76-8.41-10.13-20.29-10.13-35.63h0c0-15.34,3.38-27.22,10.13-35.63,6.73-8.41,16.53-12.62,29.4-12.62h0c12.87,0,22.67,4.21,29.4,12.62,6.76,8.41,10.13,20.29,10.13,35.63h0c0,15.22-3.43,27.06-10.28,35.52-6.88,8.49-16.63,12.73-29.25,12.73h0ZM819.41,294.75c8.66,0,15.03-3.31,19.12-9.95,4.08-6.61,6.12-16.66,6.12-30.14h0c0-13.36-2.04-23.38-6.12-30.07-4.08-6.68-10.46-10.02-19.12-10.02h0c-8.66,0-15.03,3.3-19.12,9.91-4.08,6.63-6.12,16.69-6.12,30.18h0c0,13.49,2.04,23.53,6.12,30.14,4.08,6.63,10.46,9.95,19.12,9.95ZM879.73,301.06v-92.8h10.02l2.04,19.12c0-.74.72-2.88,2.15-6.42,1.41-3.52,3.6-6.82,6.57-9.91s6.8-4.64,11.51-4.64h0c2.35,0,5.01.4,7.98,1.19,2.97.82,4.89,1.41,5.75,1.78h0l-1.3,10.21c-.86-.37-2.81-.93-5.83-1.67-3.04-.74-5.74-1.11-8.09-1.11h0c-3.59,0-6.64,1.2-9.17,3.6-2.55,2.42-4.44,5-5.68,7.72s-2.04,4.76-2.41,6.12h0v66.81h-13.55ZM963.99,302.92c-6.56,0-12.1-1.03-16.63-3.08-4.5-2.03-7.91-4.22-10.21-6.57-2.28-2.35-3.41-3.71-3.41-4.08h0l4.64-6.5c0,.25.99,1.42,2.97,3.53,1.98,2.1,4.7,4.05,8.17,5.83,3.46,1.81,7.55,2.71,12.25,2.71h0c6.93,0,12.15-1.73,15.66-5.2,3.54-3.46,5.31-7.67,5.31-12.62h0c0-3.59-.9-6.56-2.71-8.91-1.78-2.35-4.01-4.18-6.68-5.49-2.65-1.29-6.32-2.74-11.02-4.34h0c-5.45-1.98-9.77-3.81-12.99-5.49-3.22-1.66-5.98-4.16-8.28-7.5-2.28-3.34-3.41-7.67-3.41-12.99h0c0-7.92,2.87-14.21,8.61-18.86,5.76-4.63,13.17-6.94,22.2-6.94h0c3.96,0,7.76.52,11.4,1.56,3.66,1.07,6.61,2.18,8.83,3.34,2.23,1.19,3.65,1.97,4.27,2.34h0l-2.23,7.98c-.49-.37-1.73-1.15-3.71-2.34-1.98-1.16-4.55-2.3-7.72-3.41-3.14-1.11-6.38-1.67-9.73-1.67h0c-5.69,0-10.31,1.42-13.85,4.27-3.52,2.85-5.27,6.43-5.27,10.76h0c0,3.59.93,6.58,2.78,8.98,1.86,2.42,4.17,4.32,6.94,5.68,2.8,1.36,6.54,2.91,11.25,4.64h0c5.45,1.86,9.86,3.67,13.25,5.46,3.41,1.81,6.3,4.38,8.65,7.72s3.53,7.67,3.53,12.99h0c0,8.04-2.78,14.75-8.35,20.12-5.57,5.39-13.73,8.09-24.5,8.09h0Z"/>
        </g>
      </g>
      <path class="cls-2" d="M256.95,152.26c-1.08-1.84-1.24-4.09-.43-6.06,11.07-28.28-2.01-44.54-9.05-50.78-2.14-1.88-2.86-4.91-1.79-7.55,7.71-18.95-.19-32.62-1.84-35.14-.18-.27-.38-.54-.59-.79-17.56-20.75-41.07-16.31-51.76-12.78-3.18,1.08-6.68-.35-8.2-3.35C168.93,6.99,134.47-5.76,103.71,4.03c-29.68,9.44-45.49,36.84-43.93,66.66.19,3.61-2.38,6.77-5.98,7.14-8.11.84-20.7,4.15-21.97,4.67-41.31,16.67-40.9,65.4-7.48,88.52,2.04,1.41,3.31,3.72,3.08,6.19-.8,8.88.07,31.07,25.72,44.43,0,0,15.64,9.58,35.18-1.22,4.1-2.27,9.34.27,9.9,4.92,1.02,8.38,4.32,18.71,14.07,22.15,12.56,4.43,19.67-.21,24.26-2.47v63.48h8.14v-63.07c36.33,12.69,50.09-6.36,54.35-15.41,1.14-2.41,3.57-4,6.23-3.85,26.99,1.49,36.03-19.63,38.3-26.73.48-1.52,1.51-2.79,2.84-3.67,24.04-15.84,14.92-36.24,10.52-43.5M144.71,169.37v74.83h-8.14v-45.61l-32.38-32.38,5.75-5.75,26.63,26.63v-90.27h8.14v61.05l21.7-21.7,5.75,5.75-27.46,27.46Z"/>
    </g>
  </g>
</svg>